<?xml version="1.0" encoding="UTF-8" standalone="no"?>
<svg id="svg4821" xmlns:rdf="http://www.w3.org/1999/02/22-rdf-syntax-ns#" xmlns="http://www.w3.org/2000/svg" height="651.8mm" width="651.8mm" version="1.1" xmlns:cc="http://creativecommons.org/ns#" xmlns:dc="http://purl.org/dc/elements/1.1/" viewBox="0 0 2309.5451 2309.5449">
<g id="layer1" transform="translate(-664.68 -2440.2)">
<g id="g5955" fill-rule="evenodd" transform="matrix(.5 0 0 .5 909.73 1797.5)">
<path id="path5414" d="m1819.5 1285.5a94.389 94.389 0 0 0 -94.389 94.389 94.389 94.389 0 0 0 94.389 94.389 94.389 94.389 0 0 0 94.389 -94.389 94.389 94.389 0 0 0 -94.389 -94.389zm0 188.78c-41.024 0-105 11.108-111.75 51.574-17.192 103.15-17.192 223.49 17.191 223.49s-0.0004-163.32 25.787-163.32c12.502 0 4.9384 52.362 12.894 120.34 13.221 112.97 35.562 262.77 37.854 278.08a60 60 0 0 1 1.0449 -0.3476c1.0859-29.819 8.9842-239.05 16.975-239.05 7.9899 0 15.886 209.2 16.973 239.04a60 60 0 0 1 1.0547 0.3008c2.3138-15.443 24.657-165.14 37.846-278.03 7.9619-68.148 0.3695-120.34 12.893-120.34 34.383 0-8.5963 163.32 25.787 163.32s34.383-120.34 17.191-223.49c-6.7444-40.466-70.72-51.574-111.74-51.574z" fill="#004d88"/>
<path id="path5831" d="m1578 1298.1a94.389 94.389 0 0 0 -84.005 103.74 94.389 94.389 0 0 0 103.74 84.005 94.389 94.389 0 0 0 84.005 -103.74 94.389 94.389 0 0 0 -103.74 -84.005zm19.733 187.74c-40.8 4.2882-103.27 22.023-105.74 62.972-6.3153 104.38 6.2635 224.06 40.458 220.47 34.195-3.594-17.072-162.43 8.5742-165.12 12.433-1.3068 10.385 51.56 25.403 118.33 24.957 110.97 62.834 257.61 66.713 272.6a60 60 0 0 1 1.0028 -0.4549c-2.0369-29.769-16.053-238.68-8.106-239.52 7.9462-0.8352 37.666 206.39 41.867 235.96a60 60 0 0 1 1.0803 0.1889c0.6869-15.6 7.2601-166.82 8.5768-280.46 0.7949-68.607-12.212-119.72 0.2429-121.03 34.195-3.5941 8.5224 163.32 42.717 159.73 34.195-3.594 21.616-123.28-6.264-224.06-10.937-39.54-75.723-43.899-116.52-39.611z" fill="#6a661f"/>
<path id="path5833" d="m1339.3 1335.9a94.389 94.389 0 0 0 -72.702 111.95 94.389 94.389 0 0 0 111.95 72.702 94.389 94.389 0 0 0 72.702 -111.95 94.389 94.389 0 0 0 -111.95 -72.702zm39.249 184.65c-40.128 8.5294-100.4 32.696-98.581 73.68 4.6302 104.47 29.65 222.18 63.282 215.03 33.632-7.1486-33.957-159.75-8.7326-165.11 12.228-2.5992 15.717 50.192 37.633 115.03 36.42 107.75 89.417 249.63 94.842 264.13a60 60 0 0 1 0.9497 -0.5572c-5.1375-29.393-40.914-235.7-33.098-237.36 7.8154-1.6613 59.034 201.33 66.302 230.29a60 60 0 0 1 1.0941 0.075c-0.9475-15.586-10.217-166.66-20.786-279.82-6.3808-68.314-24.659-117.79-12.41-120.39 33.632-7.1488 25.548 161.54 59.18 154.39 33.632-7.1487 8.6113-124.86-29.651-222.18-15.01-38.18-79.897-35.744-120.03-27.214z" fill="#db3253"/>
<path id="path5835" d="m1105.8 1398.5a94.389 94.389 0 0 0 -60.601 118.94 94.389 94.389 0 0 0 118.94 60.601 94.389 94.389 0 0 0 60.601 -118.94 94.389 94.389 0 0 0 -118.94 -60.601zm58.335 179.54c-39.017 12.677-96.43 43.012-90.34 83.581 15.525 103.41 52.712 217.87 85.413 207.24 32.7-10.625-50.469-155.33-25.944-163.3 11.89-3.8631 20.878 48.274 49.451 110.47 47.483 103.35 115.02 238.92 121.93 252.77a60 60 0 0 1 0.8863 -0.6534c-8.1818-28.695-65.326-230.13-57.727-232.6 7.5989-2.4691 79.755 194.05 90.011 222.1a60 60 0 0 1 1.0959 -0.04c-2.5715-15.402-27.581-164.68-49.921-276.11-13.487-67.273-36.836-114.57-24.926-118.44 32.701-10.625 42.293 157.98 74.994 147.36 32.7-10.625-4.4874-125.08-52.713-217.87-18.919-36.402-83.196-27.196-122.21-14.519z" fill="#fdbe32"/>
<path id="path5837" d="m880.08 1485.1a94.389 94.389 0 0 0 -47.837 124.62 94.389 94.389 0 0 0 124.62 47.837 94.389 94.389 0 0 0 47.837 -124.62 94.389 94.389 0 0 0 -124.62 -47.837zm76.783 172.46c-37.478 16.686-91.406 52.856-81.108 92.567 26.25 101.22 75.197 211.16 106.61 197.18 31.411-13.985-66.429-149.2-42.871-159.69 11.421-5.0848 25.809 45.827 60.727 104.69 58.026 97.823 139.36 225.59 147.69 238.64a60 60 0 0 1 0.8132 -0.7424c-11.136-27.683-89.023-222.04-81.724-225.29 7.2991-3.2499 99.602 184.65 112.73 211.48a60 60 0 0 1 1.0857 -0.1544c-4.1674-15.049-44.644-160.89-78.509-269.38-20.445-65.495-48.61-110.09-37.169-115.18 31.411-13.985 58.575 152.7 89.986 138.71 31.411-13.985-17.537-123.92-75.197-211.16-22.62-34.225-85.583-18.351-123.06-1.6649z" fill="#03a09f"/>
<path id="path5839" d="m664.68 1594.9a94.389 94.389 0 0 0 -34.549 128.94 94.389 94.389 0 0 0 128.94 34.549 94.389 94.389 0 0 0 34.549 -128.94 94.389 94.389 0 0 0 -128.94 -34.548zm94.389 163.49c-35.528 20.512-85.38 62.121-70.988 100.54 36.687 97.926 96.857 202.15 126.63 184.95 29.777-17.192-81.66-141.44-59.328-154.33 10.827-6.2507 30.458 42.878 71.338 97.772 67.934 91.222 162.18 209.78 171.82 221.9a60 60 0 0 1 0.73114 -0.8233c-13.969-26.367-111.74-211.52-104.83-215.51 6.9194-3.9951 118.36 173.23 134.22 198.53a60 60 0 0 1 1.0636 -0.267c-5.7176-14.531-61.217-155.35-106.24-259.7-27.179-62.999-59.851-104.4-49.006-110.67 29.777-17.192 74.216 145.74 103.99 128.55 29.777-17.192-30.394-121.41-96.858-202.15-26.074-31.673-87.032-9.3048-122.56 11.208z" fill="#da3555"/>
<path id="path5841" d="m461.94 1726.5a94.389 94.389 0 0 0 -20.882 131.84 94.389 94.389 0 0 0 131.84 20.882 94.389 94.389 0 0 0 20.882 -131.84 94.389 94.389 0 0 0 -131.84 -20.882zm110.96 152.72c-33.19 24.114-78.419 70.705-60.09 107.41 46.722 93.555 117.46 190.91 145.27 170.7 27.817-20.21-95.998-132.13-75.135-147.29 10.114-7.3481 34.773 39.46 81.167 89.779 77.097 83.621 183.22 191.68 194.07 202.72a60 60 0 0 1 0.64107 -0.8952c-16.649-24.763-133.24-198.68-126.78-203.37 6.4639-4.6965 135.82 159.91 154.24 183.42a60 60 0 0 1 1.0299 -0.3767c-7.2052-13.853-77.12-148.1-132.8-247.17-33.615-59.813-70.436-97.576-60.305-104.94 27.817-20.21 89.043 137.18 116.86 116.97s-42.919-117.57-117.46-190.91c-29.242-28.774-87.528-0.1565-120.72 23.957z" fill="#3ca1c7"/>
<path id="path5843" d="m274.07 1878.7a94.389 94.389 0 0 0 -6.9863 133.3 94.389 94.389 0 0 0 133.3 6.9861 94.389 94.389 0 0 0 6.9861 -133.3 94.389 94.389 0 0 0 -133.3 -6.986zm126.32 140.29c-30.487 27.451-70.599 78.515-48.534 113.1 56.245 88.159 136.77 177.59 162.32 154.58 25.552-23.007-109.28-121.37-90.119-138.63 9.2904-8.365 38.707 35.609 90.107 80.803 85.415 75.104 202.25 171.48 214.2 181.32a60 60 0 0 1 0.54398 -0.9573c-19.146-22.887-153.28-183.66-147.34-189.01 5.9376-5.3464 151.79 144.84 172.57 166.29a60 60 0 0 1 0.98484 -0.4823c-8.6138-13.024-92.178-139.22-157.91-231.94-39.683-55.971-80.25-89.679-70.943-98.058 25.552-23.007 102.89 127.12 128.45 104.12 25.552-23.007-54.973-112.44-136.77-177.59-32.089-25.56-87.065 8.9935-117.55 36.444z" fill="#e33c21"/>
<path id="path5845" d="m103.13 2049.6a94.389 94.389 0 0 0 6.986 133.3 94.389 94.389 0 0 0 133.3 -6.9861 94.389 94.389 0 0 0 -6.9861 -133.3 94.389 94.389 0 0 0 -133.3 6.9862zm140.29 126.32c-27.451 30.487-62.005 85.464-36.446 117.55 65.152 81.797 154.58 162.32 177.59 136.77 23.007-25.552-121.37-109.28-104.12-128.45 8.3652-9.2902 42.217 31.368 98.059 70.942 92.798 65.764 219.07 149.4 231.98 157.94a60 60 0 0 1 0.44094 -1.0089c-21.433-20.76-171.64-166.63-166.29-172.57 5.3462-5.9377 166.1 128.18 189 147.34a60 60 0 0 1 0.92903 -0.5826c-9.928-12.053-106.23-128.83-181.29-214.16-45.316-51.517-89.184-80.799-80.805-90.106 23.007-25.552 115.62 115.67 138.63 90.119 23.007-25.552-66.425-106.08-154.58-162.32-34.585-22.065-85.648 18.045-113.1 48.532z" fill="#69243c"/>
<path id="path5847" d="m-49.008 2237.5a94.389 94.389 0 0 0 20.882 131.84 94.389 94.389 0 0 0 131.84 -20.882 94.389 94.389 0 0 0 -20.882 -131.84 94.389 94.389 0 0 0 -131.84 20.882zm152.72 110.96c-24.114 33.189-52.732 91.477-23.958 120.72 73.345 74.538 170.7 145.27 190.91 117.46 20.21-27.816-132.13-95.997-116.97-116.86 7.3482-10.114 45.265 26.783 104.94 60.304 99.164 55.704 233.49 125.68 247.22 132.83a60 60 0 0 1 0.33307 -1.0494c-23.486-18.406-188.12-147.78-183.42-154.24 4.6962-6.464 178.58 110.11 203.37 126.78a60 60 0 0 1 0.86305 -0.6765c-11.133-10.949-119.11-117.02-202.68-194.04-50.453-46.498-97.141-71.034-89.78-81.166 20.21-27.817 127.08 102.95 147.29 75.135 20.21-27.817-77.149-98.552-170.7-145.27-36.702-18.329-83.292 26.899-107.41 60.088z" fill="#ea5109"/>
<path id="path5849" d="m-180.67 2440.2a94.389 94.389 0 0 0 34.549 128.94 94.389 94.389 0 0 0 128.94 -34.549 94.389 94.389 0 0 0 -34.549 -128.94 94.389 94.389 0 0 0 -128.94 34.549zm163.49 94.389c-20.512 35.528-42.881 96.488-11.208 122.56 80.735 66.463 184.95 126.63 202.15 96.858 17.192-29.777-141.44-81.66-128.55-103.99 6.2508-10.827 47.816 21.904 110.67 49.004 104.44 45.034 245.34 100.59 259.75 106.26a60 60 0 0 1 0.22142 -1.0787c-25.281-15.85-202.53-127.31-198.54-134.23 3.995-6.9194 189.12 90.843 215.51 104.82a60 60 0 0 1 0.78785 -0.763c-12.217-9.7252-130.69-103.92-221.85-171.79-55.037-40.969-104.03-60.491-97.773-71.336 17.192-29.777 137.14 89.105 154.33 59.328 17.18-29.7-87.04-89.9-184.97-126.6-38.416-14.4-80.023 35.5-100.54 71z" fill="#004d88"/>
<path id="path5851" d="m-290.42 2655.6a94.389 94.389 0 0 0 47.837 124.62 94.389 94.389 0 0 0 124.62 -47.837 94.389 94.389 0 0 0 -47.837 -124.62 94.389 94.389 0 0 0 -124.62 47.837zm172.46 76.783c-16.686 37.478-32.56 100.44 1.6642 123.06 87.24 57.66 197.18 106.61 211.16 75.197 13.985-31.411-149.2-66.428-138.71-89.986 5.0848-11.421 49.844 16.786 115.18 37.168 108.58 33.87 254.52 74.39 269.43 78.524a60 60 0 0 1 0.10745 -1.0959c-26.799-13.121-214.73-105.44-211.48-112.74 3.2498-7.2992 197.58 70.577 225.28 81.723a60 60 0 0 1 0.70374 -0.8411c-13.167-8.3949-140.84-89.695-238.6-147.66-59.018-34.992-109.79-49.285-104.69-60.726 13.985-31.411 145.7 74.282 159.69 42.871 13.985-31.411-95.953-80.358-197.18-106.61-39.711-10.298-75.88 43.628-92.566 81.106z" fill="#6a661f"/>
<path id="path5853" d="m-377.05 2881.3a94.389 94.389 0 0 0 60.601 118.94 94.389 94.389 0 0 0 118.94 -60.601 94.389 94.389 0 0 0 -60.601 -118.94 94.389 94.389 0 0 0 -118.94 60.601zm179.54 58.335c-12.677 39.017-21.883 103.3 14.519 122.21 92.789 48.225 207.24 85.414 217.87 52.713 10.625-32.7-155.33-50.468-147.36-74.994 3.8632-11.89 51.326 11.484 118.44 24.924 111.52 22.335 260.9 47.379 276.17 49.93a60 60 0 0 1 -0.008 -1.101c-28.024-10.248-224.57-82.415-222.11-90.015 2.469-7.599 203.87 49.538 232.59 57.727a60 60 0 0 1 0.61201 -0.91c-13.972-6.9727-149.44-74.482-252.72-121.91-62.352-28.631-114.34-37.539-110.47-49.449 10.625-32.701 152.67 58.644 163.3 25.944 10.625-32.7-103.83-69.888-207.24-85.413-40.57-6.0903-70.903 51.321-83.581 90.338z" fill="#db3253"/>
<path id="path5855" d="m-439.62 3114.8a94.389 94.389 0 0 0 72.701 111.95 94.389 94.389 0 0 0 111.95 -72.702 94.389 94.389 0 0 0 -72.702 -111.95 94.389 94.389 0 0 0 -111.95 72.702zm184.65 39.249c-8.5296 40.128-10.966 105.02 27.214 120.03 97.322 38.262 215.03 63.283 222.18 29.651 7.1488-33.632-159.75-33.956-154.39-59.18 2.5993-12.228 52.245 6.0564 120.39 12.408 113.25 10.555 264.42 19.848 279.87 20.789a60 60 0 0 1 -0.12271 -1.0943c-28.93-7.2-231.95-58.4-230.29-66.2 1.662-7.8 207.93 27.9 237.35 33.1a60 60 0 0 1 0.51331 -0.9691c-14.624-5.474-156.41-58.454-264.08-94.823-65.003-21.957-117.64-25.382-115.03-37.631 7.1487-33.632 157.96 42.365 165.11 8.7327 7.1486-33.632-110.56-58.652-215.03-63.282-40.984-1.8164-65.151 58.451-73.68 98.579z" fill="#fdbe32"/>
<path id="path5857" d="m-477.44 3353.6a94.389 94.389 0 0 0 84.005 103.74 94.389 94.389 0 0 0 103.74 -84.005 94.389 94.389 0 0 0 -84.005 -103.74 94.389 94.389 0 0 0 -103.74 84.005zm187.74 19.733c-4.2883 40.8 0.0713 105.59 39.611 116.52 100.79 27.88 220.47 40.459 224.06 6.2642 3.5941-34.195-162.43-17.071-159.73-42.718 1.3068-12.433 52.592 0.5621 121.03-0.2447 113.73-1.3405 265.05-7.9002 280.51-8.5792a60 60 0 0 1 -0.23634 -1.0754c-29.542-4.197-236.8-33.923-235.97-41.869 0.83505-7.9462 209.72 6.0686 239.51 8.1072a60 60 0 0 1 0.40914 -1.0174c-15.116-3.9154-161.66-41.784-272.55-66.7-66.942-15.042-119.64-12.947-118.33-25.401 3.594-34.195 161.53 25.621 165.12-8.5741 3.5939-34.195-116.09-46.774-220.47-40.459-40.95 2.4776-58.684 64.941-62.972 105.74z" fill="#03a09f"/>
<path id="path5859" d="m-490.09 3595a94.389 94.389 0 0 0 94.389 94.389 94.389 94.389 0 0 0 94.389 -94.389 94.389 94.389 0 0 0 -94.389 -94.389 94.389 94.389 0 0 0 -94.389 94.389zm188.78 0c-0.00009 41.025 11.108 105 51.574 111.75 103.15 17.192 223.49 17.192 223.49-17.191 0.000058-34.383-163.32 0.0004-163.32-25.787 0.00003-12.502 52.363-4.9383 120.34-12.894 112.97-13.221 262.77-35.562 278.08-37.854a60 60 0 0 1 -0.34743 -1.0448c-29.819-1.086-239.05-8.9843-239.05-16.975-0.000153-7.9899 209.2-15.886 239.04-16.973a60 60 0 0 1 0.30057 -1.0546c-15.443-2.3137-165.14-24.657-278.03-37.846-68.148-7.962-120.34-0.3695-120.34-12.893-0.00005-34.384 163.32 8.5962 163.32-25.787-0.000111-34.383-120.34-34.383-223.49-17.192-40.466 6.7444-51.574 70.719-51.574 111.74z" fill="#da3555"/>
<path id="path5861" d="m-477.44 3836.4a94.389 94.389 0 0 0 103.74 84.005 94.389 94.389 0 0 0 84.005 -103.74 94.389 94.389 0 0 0 -103.74 -84.005 94.389 94.389 0 0 0 -84.005 103.74zm187.74-19.733c4.2881 40.8 22.023 103.27 62.972 105.74 104.38 6.3152 224.06-6.2635 220.47-40.458-3.5939-34.195-162.43 17.072-165.12-8.5743-1.3067-12.433 51.56-10.385 118.33-25.403 110.97-24.957 257.61-62.834 272.6-66.713a60 60 0 0 1 -0.45473 -1.0027c-29.77 2.0369-238.68 16.052-239.52 8.106-0.83534-7.9462 206.39-37.666 235.96-41.867a60 60 0 0 1 0.18869 -1.0803c-15.6-0.6868-166.82-7.2601-280.46-8.5767-68.607-0.795-119.72 12.212-121.03-0.2429-3.594-34.195 163.32-8.5225 159.73-42.717-3.5942-34.195-123.28-21.616-224.06 6.2639-39.54 10.937-43.899 75.723-39.611 116.52z" fill="#3ca1c7"/>
<path id="path5863" d="m-439.62 4075.2a94.389 94.389 0 0 0 111.95 72.702 94.389 94.389 0 0 0 72.702 -111.95 94.389 94.389 0 0 0 -111.95 -72.702 94.389 94.389 0 0 0 -72.701 111.95zm184.65-39.249c8.5293 40.128 32.696 100.4 73.68 98.581 104.47-4.6303 222.18-29.65 215.03-63.282-7.1486-33.632-159.75 33.956-165.11 8.7325-2.5991-12.228 50.192-15.717 115.03-37.633 107.75-36.42 249.63-89.417 264.13-94.842a60 60 0 0 1 -0.55706 -0.9498c-29.39 5-235.69 40.8-237.35 32.9-1.6608-7.8 201.33-59 230.29-66.3a60 60 0 0 1 0.0747 -1.094c-15.586 0.9475-166.66 10.217-279.82 20.786-68.314 6.3807-117.79 24.659-120.39 12.41-7.1488-33.632 161.54-25.548 154.39-59.18-7.1488-33.632-124.86-8.6114-222.18 29.651-38.18 15.01-35.744 79.897-27.214 120.03z" fill="#e33c21"/>
<path id="path5865" d="m-377.05 4308.7a94.389 94.389 0 0 0 118.94 60.601 94.389 94.389 0 0 0 60.601 -118.94 94.389 94.389 0 0 0 -118.94 -60.601 94.389 94.389 0 0 0 -60.601 118.94zm179.54-58.335c12.677 39.017 43.012 96.43 83.581 90.34 103.41-15.525 217.87-52.712 207.24-85.413-10.625-32.7-155.33 50.469-163.3 25.944-3.863-11.89 48.274-20.877 110.47-49.451 103.35-47.5 238.92-115 252.77-122a60 60 0 0 1 -0.65326 -0.8863c-28.695 8.1818-230.13 65.326-232.6 57.727-2.4691-7.5988 194.05-79.755 222.1-90.011a60 60 0 0 1 -0.04 -1.0958c-15.402 2.5715-164.68 27.581-276.11 49.921-67.273 13.486-114.57 36.836-118.44 24.926-10.625-32.701 157.98-42.293 147.36-74.994-10.625-32.7-125.08 4.4874-217.87 52.713-36.402 18.919-27.196 83.196-14.519 122.21z" fill="#69243c"/>
<path id="path5867" d="m-290.42 4534.4a94.389 94.389 0 0 0 124.62 47.837 94.389 94.389 0 0 0 47.837 -124.62 94.389 94.389 0 0 0 -124.62 -47.837 94.389 94.389 0 0 0 -47.837 124.62zm172.46-76.783c16.686 37.478 52.856 91.406 92.566 81.108 101.22-26.25 211.16-75.197 197.18-106.61-13.985-31.411-149.2 66.429-159.69 42.871-5.0846-11.421 45.827-25.809 104.69-60.727 97.823-58.026 225.59-139.36 238.64-147.69a60 60 0 0 1 -0.74228 -0.8131c-27.683 11.136-222.04 89.023-225.29 81.724-3.2499-7.2991 184.65-99.602 211.48-112.73a60 60 0 0 1 -0.15434 -1.0857c-15.049 4.1674-160.89 44.644-269.38 78.509-65.495 20.445-110.09 48.61-115.18 37.169-13.985-31.411 152.7-58.575 138.71-89.986-13.985-31.411-123.92 17.537-211.16 75.197-34.225 22.62-18.351 85.582-1.6648 123.06z" fill="#ea5109"/>
<path id="path5869" d="m-180.67 4749.8a94.389 94.389 0 0 0 128.94 34.549 94.389 94.389 0 0 0 34.549 -128.94 94.389 94.389 0 0 0 -128.94 -34.549 94.389 94.389 0 0 0 -34.549 128.94zm163.49-94.389c20.512 35.528 62.121 85.38 100.54 70.988 97.926-36.687 202.15-96.857 184.95-126.63-17.192-29.777-141.44 81.661-154.33 59.328-6.2508-10.827 42.878-30.458 97.772-71.338 91.222-67.934 209.78-162.18 221.9-171.82a60 60 0 0 1 -0.82348 -0.7311c-26.367 13.969-211.52 111.74-215.51 104.82-3.9949-6.9195 173.23-118.36 198.53-134.22a60 60 0 0 1 -0.26685 -1.0638c-14.531 5.7176-155.35 61.218-259.7 106.24-62.999 27.179-104.4 59.851-110.67 49.006-17.192-29.777 145.74-74.216 128.55-103.99-17.192-29.777-121.41 30.394-202.15 96.858-31.673 26.074-9.3048 87.032 11.207 122.56z" fill="#004d88"/>
<path id="path5871" d="m-49.007 4952.5a94.389 94.389 0 0 0 131.84 20.882 94.389 94.389 0 0 0 20.882 -131.84 94.389 94.389 0 0 0 -131.84 -20.882 94.389 94.389 0 0 0 -20.882 131.84zm152.73-110.9c24.113 33.189 70.705 78.419 107.41 60.09 93.555-46.722 190.91-117.46 170.7-145.27-20.21-27.817-132.13 95.998-147.29 75.135-7.3482-10.114 39.459-34.773 89.779-81.167 83.621-77.097 191.68-183.22 202.72-194.07a60 60 0 0 1 -0.89535 -0.641c-24.763 16.649-198.68 133.24-203.37 126.78-4.6964-6.464 159.91-135.82 183.42-154.24a60 60 0 0 1 -0.37655 -1.03c-13.854 7.2052-148.1 77.12-247.17 132.8-59.813 33.615-97.576 70.436-104.94 60.305-20.21-27.817 137.18-89.043 116.97-116.86s-117.57 42.919-190.91 117.46c-28.774 29.242-0.15647 87.528 23.957 120.72z" fill="#6a661f"/>
<path id="path5873" d="m103.13 5140.4a94.389 94.389 0 0 0 133.3 6.9862 94.389 94.389 0 0 0 6.9861 -133.3 94.389 94.389 0 0 0 -133.3 -6.9862 94.389 94.389 0 0 0 -6.9861 133.3zm140.29-126.32c27.451 30.487 78.515 70.599 113.1 48.534 88.159-56.245 177.59-136.77 154.58-162.32-23.007-25.552-121.37 109.28-138.63 90.119-8.3651-9.2904 35.609-38.707 80.803-90.107 75.104-85.415 171.48-202.25 181.32-214.2a60 60 0 0 1 -0.95749 -0.5435c-22.887 19.146-183.66 153.28-189.01 147.34-5.3464-5.9377 144.84-151.79 166.29-172.57a60 60 0 0 1 -0.48208 -0.985c-13.025 8.6137-139.22 92.178-231.94 157.91-55.971 39.683-89.679 80.25-98.058 70.943-23.007-25.552 127.12-102.89 104.12-128.45-23.007-25.552-112.44 54.973-177.59 136.77-25.559 32.089 8.9936 87.065 36.444 117.55z" fill="#db3253"/>
<path id="path5875" d="m274.07 5311.3a94.389 94.389 0 0 0 133.3 -6.986 94.389 94.389 0 0 0 -6.9861 -133.3 94.389 94.389 0 0 0 -133.3 6.986 94.389 94.389 0 0 0 6.9863 133.3zm126.32-140.29c30.487 27.451 85.464 62.005 117.55 36.446 81.797-65.152 162.32-154.58 136.77-177.59-25.552-23.007-109.28 121.37-128.45 104.12-9.2904-8.3652 31.368-42.217 70.942-98.06 65.765-92.798 149.4-219.07 157.94-231.98a60 60 0 0 1 -1.009 -0.4409c-20.76 21.433-166.63 171.64-172.57 166.29-5.9378-5.3463 128.18-166.1 147.34-189a60 60 0 0 1 -0.58261 -0.9291c-12.053 9.928-128.83 106.23-214.16 181.29-51.517 45.316-80.799 89.184-90.106 80.804-25.552-23.007 115.67-115.62 90.119-138.63-25.552-23.007-106.08 66.425-162.32 154.58-22.065 34.585 18.045 85.648 48.532 113.1z" fill="#fdbe32"/>
<path id="path5877" d="m461.94 5463.5a94.389 94.389 0 0 0 131.84 -20.882 94.389 94.389 0 0 0 -20.882 -131.84 94.389 94.389 0 0 0 -131.84 20.882 94.389 94.389 0 0 0 20.882 131.84zm110.96-152.72c33.19 24.114 91.477 52.732 120.72 23.958 74.538-73.345 145.27-170.7 117.46-190.91-27.817-20.21-95.997 132.13-116.86 116.97-10.114-7.3482 26.783-45.265 60.303-104.94 55.704-99.164 125.68-233.49 132.83-247.22a60 60 0 0 1 -1.0495 -0.3331c-18.406 23.486-147.78 188.12-154.24 183.42-6.4641-4.6962 110.11-178.58 126.78-203.37a60 60 0 0 1 -0.67653 -0.8631c-10.949 11.134-117.02 119.11-194.04 202.68-46.498 50.453-71.034 97.141-81.166 89.78-27.817-20.21 102.95-127.08 75.135-147.29-27.817-20.21-98.552 77.149-145.27 170.7-18.329 36.702 26.899 83.292 60.088 107.41z" fill="#03a09f"/>
<path id="path5879" d="m664.68 5595.1a94.389 94.389 0 0 0 128.94 -34.548 94.389 94.389 0 0 0 -34.549 -128.94 94.389 94.389 0 0 0 -128.94 34.549 94.389 94.389 0 0 0 34.549 128.94zm94.389-163.49c35.528 20.512 96.488 42.881 122.56 11.208 66.463-80.735 126.63-184.95 96.858-202.15-29.777-17.192-81.66 141.44-103.99 128.55-10.827-6.2508 21.905-47.816 49.004-110.67 45.034-104.44 100.59-245.34 106.26-259.75a60 60 0 0 1 -1.0785 -0.2216c-15.85 25.281-127.31 202.53-134.23 198.54-6.9195-3.9949 90.843-189.12 104.82-215.51a60 60 0 0 1 -0.76303 -0.7876c-9.7251 12.217-103.92 130.69-171.79 221.85-40.969 55.037-60.491 104.03-71.336 97.773-29.777-17.192 89.105-137.14 59.328-154.33-29.777-17.192-89.948 87.028-126.63 184.95-14.392 38.417 35.458 80.024 70.986 100.54z" fill="#da3555"/>
<path id="path5881" d="m880.08 5704.9a94.389 94.389 0 0 0 124.62 -47.837 94.389 94.389 0 0 0 -47.837 -124.62 94.389 94.389 0 0 0 -124.62 47.837 94.389 94.389 0 0 0 47.837 124.62zm76.783-172.46c37.478 16.686 100.44 32.561 123.06-1.6641 57.66-87.24 106.61-197.18 75.197-211.16-31.411-13.985-66.428 149.2-89.986 138.71-11.421-5.0848 16.786-49.844 37.168-115.18 33.87-108.58 74.39-254.52 78.524-269.43a60 60 0 0 1 -1.0957 -0.1075c-13.121 26.8-105.44 214.73-112.74 211.48-7.2992-3.2497 70.577-197.58 81.723-225.28a60 60 0 0 1 -0.8412 -0.7036c-8.3947 13.167-89.695 140.84-147.66 238.6-34.992 59.018-49.285 109.79-60.725 104.69-31.411-13.985 74.281-145.7 42.871-159.69-31.411-13.985-80.358 95.953-106.61 197.18-10.298 39.711 43.628 75.88 81.106 92.566z" fill="#3ca1c7"/>
<path id="path5883" d="m1105.8 5791.5a94.389 94.389 0 0 0 118.94 -60.601 94.389 94.389 0 0 0 -60.601 -118.94 94.389 94.389 0 0 0 -118.94 60.601 94.389 94.389 0 0 0 60.601 118.94zm58.335-179.54c39.017 12.678 103.3 21.883 122.21-14.518 48.225-92.789 85.414-207.24 52.713-217.87-32.7-10.625-50.468 155.33-74.994 147.36-11.889-3.8632 11.484-51.326 24.924-118.44 22.335-111.52 47.379-260.9 49.93-276.17a60 60 0 0 1 -1.1011 0.01c-10.248 28.024-82.415 224.57-90.014 222.11-7.5989-2.4689 49.538-203.87 57.727-232.59a60 60 0 0 1 -0.9101 -0.6117c-6.9726 13.972-74.482 149.44-121.91 252.72-28.631 62.352-37.539 114.34-49.449 110.47-32.701-10.625 58.644-152.67 25.944-163.3-32.701-10.625-69.888 103.83-85.413 207.24-6.0905 40.57 51.321 70.903 90.338 83.581z" fill="#e33c21"/>
<path id="path5885" d="m1339.3 5854.1a94.389 94.389 0 0 0 111.95 -72.702 94.389 94.389 0 0 0 -72.702 -111.95 94.389 94.389 0 0 0 -111.95 72.702 94.389 94.389 0 0 0 72.702 111.95zm39.249-184.65c40.128 8.5296 105.02 10.966 120.03-27.214 38.262-97.322 63.283-215.03 29.651-222.18-33.632-7.1488-33.956 159.75-59.18 154.39-12.228-2.5993 6.0566-52.245 12.408-120.39 10.555-113.25 19.848-264.42 20.789-279.87a60 60 0 0 1 -1.0942 0.1226c-7.262 28.942-58.489 231.96-66.305 230.3-7.8153-1.6611 27.957-207.93 33.098-237.35a60 60 0 0 1 -0.969 -0.5132c-5.4739 14.624-58.454 156.41-94.823 264.08-21.957 65.003-25.382 117.64-37.631 115.03-33.632-7.1487 42.365-157.96 8.7326-165.11-33.632-7.1486-58.652 110.56-63.283 215.03-1.8163 40.984 58.451 65.151 98.58 73.68z" fill="#69243c"/>
<path id="path5887" d="m1578 5891.9a94.389 94.389 0 0 0 103.74 -84.005 94.389 94.389 0 0 0 -84.005 -103.74 94.389 94.389 0 0 0 -103.74 84.005 94.389 94.389 0 0 0 84.005 103.74zm19.733-187.74c40.8 4.2884 105.59-0.071 116.52-39.611 27.88-100.79 40.459-220.47 6.2641-224.06-34.195-3.5942-17.071 162.43-42.718 159.73-12.433-1.3069 0.5623-52.592-0.2445-121.03-1.3405-113.73-7.9002-265.05-8.5794-280.51a60 60 0 0 1 -1.0753 0.2363c-4.197 29.542-33.923 236.8-41.869 235.97-7.9461-0.8351 6.0687-209.72 8.1073-239.51a60 60 0 0 1 -1.0174 -0.4092c-3.9154 15.116-41.784 161.66-66.7 272.55-15.042 66.942-12.947 119.64-25.401 118.34-34.195-3.5941 25.621-161.53-8.5742-165.12-34.195-3.594-46.774 116.09-40.459 220.47 2.4776 40.95 64.941 58.684 105.74 62.972z" fill="#ea5109"/>
<path id="path5889" d="m1819.5 5904.6a94.389 94.389 0 0 0 94.389 -94.388 94.389 94.389 0 0 0 -94.389 -94.389 94.389 94.389 0 0 0 -94.389 94.389 94.389 94.389 0 0 0 94.389 94.389zm0.0001-188.78c41.024-0.0001 105-11.108 111.75-51.574 17.192-103.15 17.192-223.49-17.191-223.49-34.383 0.0001 0.0005 163.32-25.787 163.32-12.502 0.0001-4.9384-52.362-12.894-120.34-13.221-112.97-35.562-262.77-37.854-278.08a60 60 0 0 1 -1.0449 0.3476c-1.0859 29.819-8.9842 239.05-16.975 239.05-7.9899-0.0001-15.886-209.2-16.973-239.04a60 60 0 0 1 -1.0547 -0.3008c-2.3137 15.443-24.657 165.14-37.846 278.03-7.962 68.148-0.3696 120.34-12.893 120.34-34.383 0 8.5962-163.32-25.787-163.32s-34.383 120.34-17.191 223.49c6.7444 40.466 70.719 51.574 111.74 51.574z" fill="#004d88"/>
<path id="path5891" d="m2060.9 5891.9a94.389 94.389 0 0 0 84.005 -103.74 94.389 94.389 0 0 0 -103.74 -84.005 94.389 94.389 0 0 0 -84.005 103.74 94.389 94.389 0 0 0 103.74 84.005zm-19.733-187.74c40.8-4.2882 103.27-22.023 105.74-62.972 6.3152-104.38-6.2635-224.06-40.459-220.47-34.195 3.594 17.072 162.43-8.5741 165.12-12.433 1.3068-10.385-51.56-25.403-118.33-24.957-110.97-62.834-257.61-66.713-272.6a60 60 0 0 1 -1.0028 0.4549c2.0368 29.769 16.052 238.68 8.106 239.52-7.9462 0.8352-37.666-206.39-41.867-235.96a60 60 0 0 1 -1.0802 -0.1889c-0.6869 15.6-7.2601 166.82-8.5769 280.46-0.7948 68.607 12.212 119.72-0.2428 121.03-34.195 3.5941-8.5224-163.32-42.717-159.73-34.195 3.594-21.616 123.28 6.264 224.06 10.937 39.54 75.723 43.899 116.52 39.611z" fill="#6a661f"/>
<path id="path5893" d="m2299.6 5854.1a94.389 94.389 0 0 0 72.702 -111.95 94.389 94.389 0 0 0 -111.95 -72.702 94.389 94.389 0 0 0 -72.702 111.95 94.389 94.389 0 0 0 111.95 72.702zm-39.249-184.65c40.128-8.5295 100.4-32.696 98.581-73.681-4.6301-104.47-29.65-222.18-63.282-215.03-33.632 7.1485 33.957 159.75 8.7326 165.11-12.228 2.5992-15.717-50.192-37.633-115.03-36.42-107.75-89.417-249.63-94.842-264.13a60 60 0 0 1 -0.9494 0.5575c5.1375 29.393 40.913 235.7 33.098 237.36-7.8154 1.6613-59.034-201.33-66.302-230.29a60 60 0 0 1 -1.0941 -0.075c0.9475 15.586 10.217 166.66 20.786 279.82 6.3807 68.314 24.659 117.79 12.409 120.39-33.632 7.1488-25.548-161.54-59.18-154.39-33.632 7.1487-8.6113 124.86 29.651 222.18 15.011 38.18 79.897 35.744 120.03 27.214z" fill="#db3253"/>
<path id="path5895" d="m2533.1 5791.5a94.389 94.389 0 0 0 60.601 -118.94 94.389 94.389 0 0 0 -118.94 -60.601 94.389 94.389 0 0 0 -60.601 118.94 94.389 94.389 0 0 0 118.94 60.601zm-58.335-179.54c39.017-12.677 96.43-43.011 90.34-83.581-15.525-103.41-52.712-217.87-85.413-207.24-32.7 10.625 50.469 155.33 25.944 163.3-11.89 3.8632-20.878-48.274-49.451-110.47-47.483-103.35-115.02-238.92-121.93-252.77a60 60 0 0 1 -0.8863 0.6534c8.1817 28.696 65.326 230.13 57.727 232.6-7.599 2.4691-79.755-194.05-90.011-222.1a60 60 0 0 1 -1.096 0.04c2.5716 15.402 27.581 164.68 49.921 276.11 13.487 67.273 36.836 114.57 24.926 118.44-32.701 10.625-42.293-157.98-74.994-147.36-32.7 10.625 4.4873 125.08 52.713 217.87 18.919 36.402 83.196 27.196 122.21 14.519z" fill="#fdbe32"/>
<path id="path5897" d="m2758.8 5704.9a94.389 94.389 0 0 0 47.837 -124.62 94.389 94.389 0 0 0 -124.62 -47.837 94.389 94.389 0 0 0 -47.837 124.62 94.389 94.389 0 0 0 124.62 47.837zm-76.783-172.46c37.478-16.686 91.406-52.856 81.108-92.567-26.25-101.22-75.197-211.16-106.61-197.18-31.411 13.985 66.429 149.2 42.871 159.69-11.421 5.0848-25.809-45.827-60.727-104.69-58.026-97.823-139.36-225.59-147.69-238.64a60 60 0 0 1 -0.8132 0.7424c11.136 27.683 89.023 222.04 81.724 225.29-7.2991 3.2499-99.602-184.65-112.73-211.48a60 60 0 0 1 -1.0857 0.1544c4.1674 15.049 44.644 160.89 78.509 269.38 20.445 65.495 48.61 110.09 37.169 115.18-31.411 13.985-58.575-152.7-89.986-138.71-31.411 13.985 17.537 123.92 75.197 211.16 22.62 34.225 85.583 18.351 123.06 1.6649z" fill="#03a09f"/>
<path id="path5899" d="m2974.2 5595.1a94.389 94.389 0 0 0 34.549 -128.94 94.389 94.389 0 0 0 -128.94 -34.549 94.389 94.389 0 0 0 -34.549 128.94 94.389 94.389 0 0 0 128.94 34.548zm-94.389-163.49c35.528-20.512 85.38-62.121 70.988-100.54-36.687-97.926-96.857-202.15-126.63-184.95-29.777 17.192 81.661 141.44 59.328 154.33-10.827 6.2507-30.458-42.878-71.338-97.772-67.934-91.222-162.18-209.78-171.82-221.9a60 60 0 0 1 -0.7312 0.8232c13.969 26.367 111.74 211.52 104.83 215.51-6.9194 3.995-118.36-173.23-134.22-198.53a60 60 0 0 1 -1.0636 0.267c5.7176 14.531 61.217 155.35 106.24 259.7 27.179 62.999 59.851 104.4 49.006 110.67-29.777 17.192-74.216-145.74-103.99-128.55-29.777 17.192 30.394 121.41 96.858 202.15 26.074 31.673 87.032 9.3049 122.56-11.207z" fill="#da3555"/>
<path id="path5901" d="m3177 5463.5a94.389 94.389 0 0 0 20.882 -131.84 94.389 94.389 0 0 0 -131.84 -20.882 94.389 94.389 0 0 0 -20.882 131.84 94.389 94.389 0 0 0 131.84 20.882zm-110.96-152.72c33.19-24.114 78.419-70.705 60.09-107.41-46.722-93.555-117.46-190.91-145.27-170.7-27.817 20.21 95.998 132.13 75.135 147.29-10.114 7.3481-34.773-39.46-81.167-89.779-77.097-83.621-183.22-191.68-194.07-202.72a60 60 0 0 1 -0.6409 0.8951c16.649 24.763 133.24 198.68 126.78 203.37-6.4639 4.6964-135.82-159.91-154.24-183.42a60 60 0 0 1 -1.0299 0.3767c7.2052 13.853 77.12 148.1 132.8 247.17 33.615 59.813 70.436 97.576 60.305 104.94-27.817 20.21-89.043-137.18-116.86-116.97s42.919 117.57 117.46 190.91c29.242 28.774 87.528 0.1564 120.72-23.957z" fill="#3ca1c7"/>
<path id="path5903" d="m3364.8 5311.3a94.389 94.389 0 0 0 6.9863 -133.3 94.389 94.389 0 0 0 -133.3 -6.9861 94.389 94.389 0 0 0 -6.9861 133.3 94.389 94.389 0 0 0 133.3 6.986zm-126.3-140.3c30.487-27.451 70.599-78.515 48.534-113.1-56.245-88.159-136.77-177.59-162.32-154.58-25.552 23.007 109.28 121.37 90.119 138.63-9.2904 8.365-38.707-35.609-90.107-80.803-85.415-75.104-202.25-171.48-214.2-181.32a60 60 0 0 1 -0.5419 0.9586c19.146 22.887 153.28 183.66 147.34 189.01-5.9376 5.3464-151.79-144.84-172.57-166.29a60 60 0 0 1 -0.9848 0.4823c8.6137 13.024 92.178 139.22 157.91 231.94 39.683 55.972 80.25 89.679 70.943 98.058-25.552 23.007-102.89-127.12-128.45-104.12-25.552 23.007 54.973 112.44 136.77 177.59 32.089 25.56 87.065-8.9935 117.55-36.444z" fill="#e33c21"/>
<path id="path5905" d="m3535.8 5140.4a94.389 94.389 0 0 0 -6.9861 -133.3 94.389 94.389 0 0 0 -133.3 6.986 94.389 94.389 0 0 0 6.9862 133.3 94.389 94.389 0 0 0 133.3 -6.9862zm-140.29-126.32c27.451-30.487 62.005-85.464 36.446-117.55-65.152-81.797-154.58-162.32-177.59-136.77-23.007 25.552 121.37 109.28 104.12 128.45-8.3651 9.2902-42.217-31.368-98.059-70.942-92.798-65.765-219.07-149.4-231.98-157.94a60 60 0 0 1 -0.4409 1.0089c21.433 20.76 171.64 166.63 166.29 172.57-5.3462 5.9377-166.1-128.18-189-147.34a60 60 0 0 1 -0.9289 0.5825c9.928 12.053 106.23 128.83 181.29 214.16 45.316 51.517 89.184 80.799 80.804 90.106-23.007 25.552-115.62-115.67-138.63-90.119-23.007 25.552 66.425 106.08 154.58 162.32 34.585 22.065 85.648-18.045 113.1-48.532z" fill="#69243c"/>
<path id="path5907" d="m3687.9 4952.5a94.389 94.389 0 0 0 -20.882 -131.84 94.389 94.389 0 0 0 -131.84 20.882 94.389 94.389 0 0 0 20.882 131.84 94.389 94.389 0 0 0 131.84 -20.882zm-152.72-110.96c24.114-33.189 52.732-91.477 23.958-120.72-73.345-74.538-170.7-145.27-190.91-117.46-20.21 27.816 132.13 95.997 116.97 116.86-7.3482 10.114-45.265-26.783-104.94-60.304-99.164-55.704-233.49-125.68-247.22-132.83a60 60 0 0 1 -0.3331 1.0494c23.486 18.406 188.12 147.78 183.42 154.24-4.6963 6.464-178.58-110.11-203.37-126.78a60 60 0 0 1 -0.8631 0.6765c11.134 10.949 119.11 117.02 202.68 194.04 50.453 46.498 97.141 71.034 89.78 81.166-20.21 27.817-127.08-102.95-147.29-75.135-20.21 27.817 77.149 98.552 170.7 145.27 36.702 18.329 83.292-26.899 107.41-60.088z" fill="#ea5109"/>
<path id="path5909" d="m3819.6 4749.8a94.389 94.389 0 0 0 -34.548 -128.94 94.389 94.389 0 0 0 -128.94 34.549 94.389 94.389 0 0 0 34.548 128.94 94.389 94.389 0 0 0 128.94 -34.549zm-163.49-94.389c20.512-35.528 42.881-96.488 11.208-122.56-80.735-66.463-184.95-126.63-202.15-96.858-17.192 29.777 141.44 81.66 128.55 103.99-6.2507 10.827-47.816-21.904-110.67-49.004-104.44-45.034-245.34-100.59-259.75-106.26a60 60 0 0 1 -0.2214 1.0787c25.281 15.85 202.53 127.31 198.54 134.23-3.995 6.9194-189.12-90.843-215.51-104.82a60 60 0 0 1 -0.7879 0.763c12.217 9.7251 130.69 103.92 221.85 171.79 55.037 40.969 104.03 60.491 97.773 71.336-17.192 29.777-137.14-89.105-154.33-59.328-17.192 29.777 87.028 89.948 184.95 126.63 38.417 14.392 80.024-35.458 100.54-70.986z" fill="#004d88"/>
<path id="path5911" d="m3929.3 4534.4a94.389 94.389 0 0 0 -47.837 -124.62 94.389 94.389 0 0 0 -124.62 47.837 94.389 94.389 0 0 0 47.837 124.62 94.389 94.389 0 0 0 124.62 -47.837zm-172.46-76.783c16.686-37.478 32.56-100.44-1.6641-123.06-87.24-57.66-197.18-106.61-211.16-75.197-13.985 31.411 149.2 66.428 138.71 89.986-5.0848 11.421-49.844-16.786-115.18-37.168-108.58-33.87-254.52-74.39-269.43-78.524a60 60 0 0 1 -0.1075 1.0959c26.799 13.121 214.73 105.44 211.48 112.74-3.2498 7.2992-197.58-70.577-225.28-81.723a60 60 0 0 1 -0.7037 0.8411c13.167 8.3949 140.84 89.695 238.6 147.66 59.018 34.992 109.79 49.285 104.69 60.725-13.985 31.411-145.7-74.281-159.69-42.871-13.985 31.411 95.953 80.358 197.18 106.61 39.711 10.298 75.88-43.628 92.566-81.106z" fill="#6a661f"/>
<path id="path5913" d="m4016 4308.7a94.389 94.389 0 0 0 -60.601 -118.94 94.389 94.389 0 0 0 -118.94 60.601 94.389 94.389 0 0 0 60.601 118.94 94.389 94.389 0 0 0 118.94 -60.601zm-179.54-58.335c12.677-39.017 21.883-103.3-14.519-122.21-92.789-48.225-207.24-85.414-217.87-52.713-10.625 32.7 155.33 50.468 147.36 74.994-3.8632 11.89-51.326-11.484-118.44-24.924-111.52-22.335-260.9-47.379-276.17-49.93a60 60 0 0 1 0.01 1.1009c28.024 10.248 224.57 82.416 222.11 90.015-2.469 7.599-203.87-49.538-232.59-57.727a60 60 0 0 1 -0.612 0.91c13.972 6.9727 149.44 74.482 252.72 121.91 62.352 28.631 114.34 37.539 110.47 49.45-10.625 32.7-152.67-58.644-163.3-25.944-10.625 32.7 103.83 69.888 207.24 85.413 40.57 6.0902 70.904-51.321 83.581-90.338z" fill="#db3253"/>
<path id="path5915" d="m4078.5 4075.2a94.389 94.389 0 0 0 -72.701 -111.95 94.389 94.389 0 0 0 -111.95 72.702 94.389 94.389 0 0 0 72.702 111.95 94.389 94.389 0 0 0 111.95 -72.702zm-184.65-39.249c8.5296-40.128 10.966-105.02-27.214-120.03-97.322-38.262-215.03-63.283-222.18-29.651-7.1489 33.632 159.75 33.956 154.39 59.18-2.5993 12.228-52.245-6.0563-120.39-12.408-113.25-10.555-264.42-19.848-279.87-20.79a60 60 0 0 1 0.1227 1.0943c28.942 7.2622 231.96 58.49 230.3 66.305-1.6612 7.8154-207.93-27.957-237.35-33.098a60 60 0 0 1 -0.5133 0.9691c14.624 5.474 156.41 58.453 264.08 94.823 65.003 21.957 117.64 25.382 115.03 37.631-7.1487 33.632-157.96-42.365-165.11-8.7328-7.1486 33.632 110.56 58.652 215.03 63.283 40.984 1.8164 65.15-58.451 73.68-98.579z" fill="#fdbe32"/>
<path id="path5917" d="m4116.3 3836.4a94.389 94.389 0 0 0 -84.005 -103.74 94.389 94.389 0 0 0 -103.74 84.005 94.389 94.389 0 0 0 84.005 103.74 94.389 94.389 0 0 0 103.74 -84.006zm-187.74-19.732c4.2883-40.8-0.071-105.59-39.611-116.52-100.79-27.88-220.47-40.459-224.06-6.2642-3.5941 34.195 162.43 17.071 159.73 42.718-1.3067 12.433-52.592-0.5622-121.03 0.2446-113.73 1.3405-265.05 7.9001-280.51 8.5792a60 60 0 0 1 0.2364 1.0754c29.542 4.197 236.8 33.923 235.97 41.869-0.835 7.9462-209.72-6.0686-239.51-8.1072a60 60 0 0 1 -0.4092 1.0174c15.116 3.9153 161.66 41.784 272.55 66.7 66.942 15.042 119.64 12.947 118.33 25.401-3.594 34.195-161.53-25.621-165.12 8.5741-3.594 34.195 116.09 46.774 220.47 40.459 40.95-2.4776 58.684-64.941 62.972-105.74z" fill="#03a09f"/>
<path id="path5919" d="m4129 3595a94.389 94.389 0 0 0 -94.389 -94.389 94.389 94.389 0 0 0 -94.389 94.389 94.389 94.389 0 0 0 94.389 94.389 94.389 94.389 0 0 0 94.388 -94.389zm-188.78 0.0001c0.0002-41.025-11.108-105-51.574-111.75-103.15-17.192-223.49-17.192-223.49 17.191s163.32-0.0005 163.32 25.787c-0.0001 12.501-52.363 4.9383-120.34 12.894-112.97 13.221-262.77 35.562-278.08 37.854a60 60 0 0 1 0.3473 1.0448c29.819 1.086 239.05 8.9843 239.05 16.975 0 7.9899-209.2 15.886-239.04 16.973a60 60 0 0 1 -0.3005 1.0546c15.443 2.3137 165.14 24.657 278.03 37.846 68.148 7.9621 120.34 0.3695 120.34 12.893 0.0001 34.384-163.32-8.5963-163.32 25.787 0.0001 34.383 120.34 34.383 223.49 17.192 40.466-6.7444 51.574-70.719 51.574-111.74z" fill="#da3555"/>
<path id="path5921" d="m4116.3 3353.6a94.389 94.389 0 0 0 -103.74 -84.005 94.389 94.389 0 0 0 -84.005 103.74 94.389 94.389 0 0 0 103.74 84.005 94.389 94.389 0 0 0 84.005 -103.74zm-187.74 19.733c-4.2881-40.8-22.023-103.27-62.972-105.74-104.38-6.3151-224.06 6.2636-220.47 40.459 3.5939 34.195 162.43-17.072 165.12 8.5742 1.3067 12.433-51.56 10.385-118.33 25.403-110.97 24.957-257.61 62.834-272.6 66.713a60 60 0 0 1 0.4547 1.0026c29.77-2.0368 238.68-16.052 239.52-8.1058 0.8352 7.9461-206.39 37.666-235.96 41.867a60 60 0 0 1 -0.1887 1.0803c15.6 0.6868 166.82 7.2601 280.46 8.5766 68.607 0.7951 119.72-12.212 121.03 0.243 3.5941 34.195-163.32 8.5224-159.73 42.717 3.5942 34.195 123.28 21.616 224.06-6.2639 39.54-10.937 43.899-75.723 39.611-116.52z" fill="#3ca1c7"/>
<path id="path5923" d="m4078.5 3114.8a94.389 94.389 0 0 0 -111.95 -72.702 94.389 94.389 0 0 0 -72.702 111.95 94.389 94.389 0 0 0 111.95 72.702 94.389 94.389 0 0 0 72.702 -111.95zm-184.65 39.249c-8.5293-40.128-32.696-100.4-73.68-98.581-104.47 4.6303-222.18 29.65-215.03 63.282 7.1485 33.632 159.75-33.956 165.11-8.7324 2.5991 12.228-50.192 15.717-115.03 37.633-107.75 36.42-249.63 89.417-264.13 94.842a60 60 0 0 1 0.5593 0.9486c29.393-5.1376 235.69-40.914 237.36-33.098 1.6613 7.8153-201.33 59.034-230.29 66.302a60 60 0 0 1 -0.075 1.094c15.586-0.9475 166.66-10.217 279.82-20.786 68.314-6.3806 117.79-24.659 120.39-12.41 7.1488 33.632-161.54 25.548-154.39 59.18 7.1488 33.632 124.86 8.6114 222.18-29.651 38.18-15.01 35.744-79.897 27.214-120.03z" fill="#e33c21"/>
<path id="path5925" d="m4016 2881.3a94.389 94.389 0 0 0 -118.94 -60.601 94.389 94.389 0 0 0 -60.601 118.94 94.389 94.389 0 0 0 118.94 60.601 94.389 94.389 0 0 0 60.601 -118.94zm-179.54 58.336c-12.677-39.017-43.012-96.43-83.581-90.34-103.41 15.525-217.87 52.712-207.24 85.413 10.625 32.7 155.33-50.469 163.3-25.944 3.863 11.89-48.274 20.877-110.47 49.451-103.35 47.483-238.92 115.02-252.77 121.93a60 60 0 0 1 0.6533 0.8863c28.695-8.1819 230.13-65.326 232.6-57.727 2.4691 7.5988-194.05 79.755-222.1 90.011a60 60 0 0 1 0.04 1.0957c15.402-2.5715 164.68-27.581 276.11-49.921 67.273-13.486 114.57-36.836 118.44-24.926 10.625 32.701-157.98 42.293-147.36 74.994 10.625 32.7 125.08-4.4874 217.87-52.713 36.402-18.919 27.196-83.196 14.519-122.21z" fill="#69243c"/>
<path id="path5927" d="m3929.3 2655.6a94.389 94.389 0 0 0 -124.62 -47.837 94.389 94.389 0 0 0 -47.837 124.62 94.389 94.389 0 0 0 124.62 47.837 94.389 94.389 0 0 0 47.837 -124.62zm-172.46 76.783c-16.686-37.478-52.855-91.406-92.566-81.108-101.22 26.25-211.16 75.197-197.18 106.61 13.985 31.411 149.2-66.429 159.69-42.871 5.0846 11.421-45.827 25.809-104.69 60.727-97.823 58.026-225.59 139.36-238.64 147.69a60 60 0 0 1 0.7423 0.8131c27.683-11.136 222.04-89.023 225.29-81.724 3.2499 7.2991-184.65 99.602-211.48 112.73a60 60 0 0 1 0.1543 1.0857c15.049-4.1674 160.89-44.644 269.38-78.509 65.495-20.445 110.09-48.61 115.18-37.169 13.985 31.411-152.7 58.575-138.71 89.986 13.985 31.411 123.92-17.537 211.16-75.197 34.225-22.62 18.351-85.582 1.6648-123.06z" fill="#ea5109"/>
<path id="path5929" d="m3819.6 2440.2a94.389 94.389 0 0 0 -128.94 -34.549 94.389 94.389 0 0 0 -34.549 128.94 94.389 94.389 0 0 0 128.94 34.549 94.389 94.389 0 0 0 34.549 -128.94zm-163.49 94.388c-20.512-35.528-62.121-85.38-100.54-70.988-97.926 36.687-202.15 96.857-184.95 126.63 17.192 29.777 141.44-81.661 154.33-59.328 6.2508 10.827-42.878 30.458-97.772 71.338-91.222 67.934-209.78 162.18-221.9 171.82a60 60 0 0 1 0.8235 0.731c26.367-13.969 211.52-111.74 215.51-104.82 3.9949 6.9195-173.23 118.36-198.53 134.22a60 60 0 0 1 0.2668 1.0638c14.531-5.7176 155.35-61.218 259.7-106.24 62.999-27.179 104.4-59.851 110.67-49.006 17.192 29.777-145.74 74.216-128.55 103.99 17.192 29.777 121.41-30.394 202.15-96.858 31.673-26.074 9.3047-87.032-11.207-122.56z" fill="#004d88"/>
<path id="path5931" d="m3687.9 2237.5a94.389 94.389 0 0 0 -131.84 -20.882 94.389 94.389 0 0 0 -20.882 131.84 94.389 94.389 0 0 0 131.84 20.882 94.389 94.389 0 0 0 20.882 -131.84zm-152.72 110.96c-24.114-33.189-70.705-78.419-107.41-60.09-93.555 46.722-190.91 117.46-170.7 145.27 20.21 27.817 132.13-95.998 147.29-75.135 7.3483 10.114-39.46 34.773-89.779 81.167-83.621 77.097-191.68 183.22-202.72 194.07a60 60 0 0 1 0.8954 0.641c24.762-16.649 198.68-133.24 203.37-126.78 4.6964 6.464-159.91 135.82-183.42 154.24a60 60 0 0 1 0.3766 1.03c13.854-7.2052 148.1-77.12 247.17-132.8 59.813-33.615 97.576-70.436 104.94-60.305 20.21 27.817-137.18 89.043-116.97 116.86s117.57-42.919 190.91-117.46c28.774-29.242 0.1564-87.528-23.957-120.72z" fill="#6a661f"/>
<path id="path5933" d="m3535.8 2049.6a94.389 94.389 0 0 0 -133.3 -6.9862 94.389 94.389 0 0 0 -6.9861 133.3 94.389 94.389 0 0 0 133.3 6.9862 94.389 94.389 0 0 0 6.986 -133.3zm-140.29 126.32c-27.451-30.487-78.515-70.599-113.1-48.534-88.159 56.245-177.59 136.77-154.58 162.32 23.007 25.552 121.37-109.28 138.63-90.119 8.3651 9.2904-35.608 38.707-80.803 90.107-75.104 85.415-171.48 202.25-181.32 214.2a60 60 0 0 1 0.9584 0.5418c22.887-19.146 183.66-153.28 189.01-147.34 5.3464 5.9377-144.84 151.79-166.29 172.57a60 60 0 0 1 0.4821 0.985c13.024-8.6136 139.22-92.178 231.94-157.91 55.972-39.683 89.679-80.25 98.058-70.943 23.007 25.552-127.12 102.89-104.12 128.45 23.007 25.552 112.44-54.973 177.59-136.77 25.559-32.089-8.9935-87.065-36.444-117.55z" fill="#db3253"/>
<path id="path5935" d="m3364.8 1878.7a94.389 94.389 0 0 0 -133.3 6.9859 94.389 94.389 0 0 0 6.9861 133.3 94.389 94.389 0 0 0 133.3 -6.986 94.389 94.389 0 0 0 -6.9865 -133.3zm-126.32 140.29c-30.487-27.451-85.464-62.005-117.55-36.446-81.797 65.152-162.32 154.58-136.77 177.59 25.552 23.007 109.28-121.37 128.45-104.12 9.2905 8.3653-31.367 42.217-70.942 98.06-65.765 92.798-149.4 219.07-157.94 231.98a60 60 0 0 1 1.0091 0.4408c20.76-21.433 166.63-171.64 172.57-166.29 5.9377 5.3464-128.18 166.1-147.34 189a60 60 0 0 1 0.5826 0.9291c12.053-9.928 128.83-106.23 214.16-181.29 51.517-45.316 80.799-89.184 90.106-80.804 25.552 23.007-115.67 115.62-90.119 138.63 25.552 23.007 106.08-66.425 162.32-154.58 22.065-34.585-18.045-85.648-48.532-113.1z" fill="#fdbe32"/>
<path id="path5937" d="m3177 1726.5a94.389 94.389 0 0 0 -131.84 20.882 94.389 94.389 0 0 0 20.882 131.84 94.389 94.389 0 0 0 131.84 -20.882 94.389 94.389 0 0 0 -20.882 -131.84zm-110.96 152.72c-33.19-24.114-91.477-52.732-120.72-23.958-74.538 73.345-145.27 170.7-117.46 190.91 27.817 20.21 95.997-132.13 116.86-116.97 10.114 7.3481-26.783 45.265-60.303 104.94-55.704 99.164-125.68 233.49-132.83 247.22a60 60 0 0 1 1.0495 0.3329c18.406-23.486 147.78-188.12 154.24-183.42 6.4642 4.6962-110.11 178.58-126.78 203.37a60 60 0 0 1 0.6764 0.8631c10.949-11.134 117.02-119.11 194.04-202.68 46.498-50.453 71.034-97.141 81.165-89.78 27.817 20.21-102.95 127.08-75.135 147.29 27.817 20.21 98.552-77.149 145.27-170.7 18.329-36.702-26.899-83.292-60.088-107.41z" fill="#03a09f"/>
<path id="path5939" d="m2974.2 1594.9a94.389 94.389 0 0 0 -128.94 34.548 94.389 94.389 0 0 0 34.549 128.94 94.389 94.389 0 0 0 128.94 -34.549 94.389 94.389 0 0 0 -34.549 -128.94zm-94.388 163.49c-35.528-20.513-96.488-42.881-122.56-11.208-66.463 80.735-126.63 184.95-96.858 202.15 29.777 17.192 81.66-141.44 103.99-128.55 10.826 6.2508-21.905 47.816-49.004 110.67-45.034 104.44-100.59 245.34-106.26 259.75a60 60 0 0 1 1.0785 0.2217c15.85-25.281 127.31-202.53 134.23-198.54 6.9194 3.995-90.843 189.12-104.82 215.51a60 60 0 0 1 0.763 0.7876c9.7251-12.217 103.92-130.69 171.79-221.85 40.969-55.037 60.491-104.03 71.336-97.773 29.777 17.192-89.105 137.14-59.328 154.33 29.777 17.192 89.948-87.028 126.63-184.95 14.392-38.417-35.458-80.024-70.986-100.54z" fill="#da3555"/>
<path id="path5941" d="m2758.8 1485.1a94.389 94.389 0 0 0 -124.62 47.837 94.389 94.389 0 0 0 47.837 124.62 94.389 94.389 0 0 0 124.62 -47.837 94.389 94.389 0 0 0 -47.837 -124.62zm-76.782 172.46c-37.478-16.686-100.44-32.56-123.06 1.6641-57.66 87.24-106.61 197.18-75.197 211.16 31.41 13.985 66.428-149.2 89.986-138.71 11.42 5.0849-16.787 49.844-37.168 115.18-33.87 108.58-74.39 254.52-78.524 269.43a60 60 0 0 1 1.0956 0.1076c13.121-26.8 105.44-214.73 112.74-211.48 7.2991 3.2497-70.577 197.58-81.723 225.28a60 60 0 0 1 0.8413 0.7036c8.3947-13.166 89.695-140.84 147.66-238.6 34.992-59.018 49.285-109.79 60.726-104.69 31.411 13.985-74.282 145.7-42.871 159.69 31.411 13.985 80.358-95.953 106.61-197.18 10.298-39.711-43.628-75.879-81.106-92.566z" fill="#3ca1c7"/>
<path id="path5943" d="m2533.1 1398.5a94.389 94.389 0 0 0 -118.94 60.601 94.389 94.389 0 0 0 60.601 118.94 94.389 94.389 0 0 0 118.94 -60.601 94.389 94.389 0 0 0 -60.601 -118.94zm-58.335 179.54c-39.017-12.678-103.3-21.883-122.21 14.518-48.225 92.789-85.414 207.24-52.713 217.87 32.7 10.625 50.468-155.33 74.994-147.36 11.89 3.8632-11.484 51.326-24.924 118.44-22.335 111.52-47.379 260.9-49.93 276.17a60 60 0 0 1 1.1012 -0.01c10.247-28.024 82.415-224.57 90.014-222.11 7.5989 2.4689-49.538 203.87-57.727 232.59a60 60 0 0 1 0.9099 0.612c6.9726-13.972 74.482-149.44 121.91-252.72 28.631-62.352 37.539-114.34 49.449-110.47 32.701 10.625-58.644 152.67-25.944 163.3 32.7 10.625 69.888-103.83 85.413-207.24 6.0905-40.57-51.321-70.903-90.338-83.581z" fill="#e33c21"/>
<path id="path5945" d="m2299.6 1335.9a94.389 94.389 0 0 0 -111.95 72.702 94.389 94.389 0 0 0 72.702 111.95 94.389 94.389 0 0 0 111.95 -72.702 94.389 94.389 0 0 0 -72.702 -111.95zm-39.249 184.65c-40.128-8.5296-105.02-10.966-120.03 27.214-38.262 97.322-63.283 215.03-29.651 222.18 33.632 7.1488 33.956-159.75 59.18-154.39 12.228 2.5993-6.0566 52.245-12.408 120.39-10.555 113.25-19.848 264.42-20.789 279.87a60 60 0 0 1 1.0942 -0.1227c7.262-28.942 58.489-231.96 66.305-230.3 7.8153 1.6611-27.957 207.93-33.098 237.35a60 60 0 0 1 0.9689 0.5132c5.474-14.624 58.454-156.41 94.823-264.08 21.957-65.003 25.382-117.64 37.631-115.03 33.632 7.1487-42.365 157.96-8.7326 165.11 33.632 7.1487 58.652-110.56 63.283-215.03 1.8162-40.984-58.451-65.151-98.58-73.68z" fill="#69243c"/>
<path id="path5947" d="m2060.9 1298.1a94.389 94.389 0 0 0 -103.74 84.005 94.389 94.389 0 0 0 84.005 103.74 94.389 94.389 0 0 0 103.74 -84.005 94.389 94.389 0 0 0 -84.005 -103.74zm-19.733 187.74c-40.8-4.2884-105.59 0.071-116.52 39.611-27.88 100.79-40.459 220.47-6.2641 224.06 34.195 3.5942 17.071-162.43 42.718-159.73 12.433 1.3069-0.5623 52.592 0.2445 121.03 1.3405 113.73 7.9002 265.05 8.5794 280.51a60 60 0 0 1 1.0753 -0.2363c4.1971-29.542 33.923-236.8 41.869-235.97 7.9462 0.8351-6.0687 209.72-8.1072 239.51a60 60 0 0 1 1.0174 0.4092c3.9153-15.116 41.784-161.66 66.7-272.55 15.042-66.942 12.947-119.64 25.401-118.34 34.195 3.5941-25.621 161.53 8.5741 165.12 34.195 3.594 46.774-116.09 40.459-220.47-2.4776-40.95-64.941-58.684-105.74-62.972z" fill="#ea5109"/>
<path id="path5949" d="m1158.9 322.41c-1.5965 2.8032-2.875 5.8266-3.7793 9.0957-9.603 34.716-17.39 71.672-22.076 105.36-0.2313 30.18-4.4768 68.833-2.1602 93.635 2.8142 13.69 7.9377 22.559 15.818 24.658 32.183-5.0508 31.824-122.39 15.006-223.3-0.5576-3.346-1.5137-6.4866-2.8086-9.4414z" transform="translate(769.45 1194)" fill="#004d88"/>
</g>
</g>
</svg>
